<?xml version="1.0" encoding="UTF-8"?>
<!-- Generator: Adobe Illustrator 24.0.1, SVG Export Plug-In . SVG Version: 6.00 Build 0)  -->
<svg xmlns="http://www.w3.org/2000/svg" xmlns:xlink="http://www.w3.org/1999/xlink" version="1.1" id="Capa_1" x="0px" y="0px" viewBox="0 0 818 143.1" style="enable-background:new 0 0 818 143.1;" xml:space="preserve">
<style type="text/css">
	.st0{fill:#FFFFFF;}
</style>
<g>
	<g>
		<g>
			<path class="st0" d="M282,25.3h20.5l-20,74.5H329l-5,18.6H257L282,25.3z"></path>
		</g>
		<g>
			<path class="st0" d="M365.4,25.3h69.6L430,43.6h-49.2l-5.1,19H419l-4.9,18h-43.2l-5.3,19.7h50l-4.9,18.2h-70.2L365.4,25.3z"></path>
		</g>
		<g>
			<path class="st0" d="M465.4,70.2l-20-44.8h23l11.7,29.9l26.1-29.9h26.2l-43.8,47.1l20.6,46h-23l-12.5-31.3l-27.1,31.3h-26.2     L465.4,70.2z"></path>
		</g>
		<g>
			<path class="st0" d="M575.2,24.7h19.7l14.8,93.8h-21l-2.9-20.9h-39.4l-14.1,20.9h-22.1L575.2,24.7z M583.3,79.5l-4.3-30.7     l-20.5,30.7H583.3z"></path>
		</g>
		<g>
			<path class="st0" d="M646.2,25.3h33.9c13.8,0,23.3,3.1,29.5,9.3c4.7,4.7,7.2,11.2,7.2,18.7c0,8.9-3.1,16.6-8.5,22.1     c-5.2,5.2-12.4,9-21.5,11.2l15.8,31.8h-23.3L665,88.6h-15.3l-8,29.8h-20.5L646.2,25.3z M672.8,70.6c8,0,14.8-2,18.8-6     c2.4-2.4,3.9-5.6,3.9-9.4c0-3.2-0.9-5.4-2.9-7.5c-2.5-2.5-7.1-3.9-13.6-3.9h-17.2l-7.2,26.7H672.8z"></path>
		</g>
		<g>
			<path class="st0" d="M754.1,44.2h-28.3l5-18.9H808l-5.1,18.9h-28.3l-20,74.2h-20.5L754.1,44.2z"></path>
		</g>
	</g>
	<g>
		<g>
			<polygon class="st0" points="146.3,30.3 162,9 138.5,10.9 80.5,89.6 38.5,68.2 67.2,59.4 88.7,30.3 15.6,56.7 10,77 68.2,106.4      47.8,134.1 71.3,132.2 133.9,47.1 176.2,68.4 147.5,77.3 126,106.4 199.1,80 204.6,59.7    "></polygon>
		</g>
	</g>
</g>
</svg>
